<svg xmlns="http://www.w3.org/2000/svg" xmlns:xlink="http://www.w3.org/1999/xlink" id="Capa_1" x="0" y="0" version="1.1" viewBox="0 0 512 512" xml:space="preserve" style="enable-background:new 0 0 512 512"><g><g><polygon points="123.142 190.142 94.858 161.858 .716 256 94.858 350.142 123.142 321.858 57.284 256"/></g></g><g><g><path d="M452,0H60C26.916,0,0,26.916,0,60v96h40V60c0-11.028,8.972-20,20-20h106v78h169v40H166v78h169v40H166v78h169v40H166v78H60 c-11.028,0-20-8.972-20-20v-96H0v96c0,33.084,26.916,60,60,60h392c33.084,0,60-26.916,60-60V60C512,26.916,485.084,0,452,0z M472,452c0,11.028-8.972,20-20,20H336v-78h136V452z M472,354H336v-78h136V354z M472,236H336v-78h136V236z M472,118H336V40h116 c11.028,0,20,8.972,20,20V118z"/></g></g></svg>