<svg xmlns="http://www.w3.org/2000/svg" xmlns:xlink="http://www.w3.org/1999/xlink" id="Capa_1" x="0" y="0" version="1.1" viewBox="0 0 512 512" xml:space="preserve" style="enable-background:new 0 0 512 512"><g><g><path d="M452,0H60C26.916,0,0,26.916,0,60v392c0,33.084,26.916,60,60,60h392c33.084,0,60-26.916,60-60V60 C512,26.916,485.084,0,452,0z M472,452c0,11.028-8.972,20-20,20H60c-11.028,0-20-8.972-20-20V60c0-11.028,8.972-20,20-20h392 c11.028,0,20,8.972,20,20V452z"/></g></g><g><g><rect width="40" height="40" x="236" y="236"/></g></g><g><g><rect width="40" height="40" x="393" y="236"/></g></g><g><g><rect width="40" height="40" x="314" y="236"/></g></g><g><g><rect width="40" height="40" x="79" y="236"/></g></g><g><g><rect width="40" height="40" x="158" y="236"/></g></g><g><g><rect width="40" height="40" x="236" y="314"/></g></g><g><g><rect width="40" height="40" x="236" y="392"/></g></g><g><g><rect width="40" height="40" x="236" y="158"/></g></g><g><g><rect width="40" height="40" x="236" y="80"/></g></g></svg>