<svg xmlns="http://www.w3.org/2000/svg" xmlns:xlink="http://www.w3.org/1999/xlink" id="Capa_1" x="0" y="0" version="1.1" viewBox="0 0 512 512" xml:space="preserve" style="enable-background:new 0 0 512 512"><g><g><rect width="40" height="40" x="472" y="236"/></g></g><g><g><rect width="40" height="40" x="472" y="314"/></g></g><g><g><rect width="40" height="40" x="236" y="236"/></g></g><g><g><rect width="40" height="40" x="393" y="236"/></g></g><g><g><rect width="40" height="40" x="314" y="236"/></g></g><g><g><rect width="40" height="40" y="236"/></g></g><g><g><rect width="40" height="40" x="79" y="236"/></g></g><g><g><rect width="40" height="40" x="158" y="236"/></g></g><g><g><rect width="40" height="40" x="236"/></g></g><g><g><rect width="40" height="40" x="393"/></g></g><g><g><path d="M472,0v40h40C512,17.909,494.091,0,472,0z"/></g></g><g><g><rect width="40" height="40" x="314"/></g></g><g><g><rect width="40" height="40" x="79"/></g></g><g><g><rect width="40" height="40" x="158"/></g></g><g><g><rect width="40" height="40" x="472" y="392"/></g></g><g><g><rect width="40" height="40" y="314"/></g></g><g><g><rect width="40" height="40" y="392"/></g></g><g><g><rect width="40" height="40" x="236" y="314"/></g></g><g><g><rect width="40" height="40" x="236" y="392"/></g></g><g><g><rect width="40" height="40" x="472" y="158"/></g></g><g><g><rect width="40" height="40" x="472" y="80"/></g></g><g><g><rect width="40" height="40" y="158"/></g></g><g><g><rect width="40" height="40" y="80"/></g></g><g><g><path d="M0,40h40V0C17.909,0,0,17.909,0,40z"/></g></g><g><g><path d="M0,472c0,22.091,17.909,40,40,40h432c22.091,0,40-17.909,40-40H0z"/></g></g><g><g><rect width="40" height="40" x="236" y="158"/></g></g><g><g><rect width="40" height="40" x="236" y="80"/></g></g></svg>